<svg width="179.13" height="82.74" viewBox="0 0 179.13 82.74" xmlns="http://www.w3.org/2000/svg"><g id="svgGroup" stroke-linecap="round" fill-rule="evenodd" font-size="9pt" stroke="#ffffff" strokeWidth="1" fill="#00000000" style="stroke:#ffffff;stroke-width:1;fill:#00000000"><path d="M 44.73 81.48 L 0 81.48 L 0 8.715 L 42 8.715 L 42 14.91 L 7.14 14.91 L 7.14 40.215 L 38.22 40.215 L 38.22 46.305 L 7.14 46.305 L 7.14 75.285 L 44.73 75.285 L 44.73 81.48 Z M 123.795 81.48 L 115.71 81.48 Q 113.19 77.28 109.988 73.238 Q 106.785 69.195 103.268 65.625 Q 99.75 62.055 96.233 59.115 Q 92.715 56.175 89.565 54.18 L 89.565 81.48 L 82.74 81.48 L 82.74 1.26 L 89.565 0 L 89.565 51.66 Q 92.016 49.307 95.015 46.314 A 558.752 558.752 0 0 0 95.445 45.885 Q 98.7 42.63 102.008 39.27 A 351.45 351.45 0 0 0 106.762 34.348 A 306.71 306.71 0 0 0 108.255 32.76 Q 111.195 29.61 113.295 27.195 L 121.485 27.195 A 1537.735 1537.735 0 0 1 118.998 29.784 Q 117.595 31.241 116.025 32.865 Q 112.98 36.015 109.673 39.428 Q 106.365 42.84 103.11 46.095 L 97.23 51.975 A 47.555 47.555 0 0 1 100.169 54.146 Q 102.116 55.696 104.212 57.645 A 113.857 113.857 0 0 1 110.655 64.151 A 125.544 125.544 0 0 1 111.562 65.153 Q 115.185 69.195 118.387 73.448 Q 121.59 77.7 123.795 81.48 Z M 178.549 61.23 A 38.668 38.668 0 0 0 179.13 54.39 A 40.802 40.802 0 0 0 178.913 50.12 A 32.616 32.616 0 0 0 177.293 42.735 A 30.776 30.776 0 0 0 176.282 40.205 A 25.46 25.46 0 0 0 172.147 33.758 Q 168.84 30.03 164.325 27.983 A 22.113 22.113 0 0 0 160.806 26.735 A 25.31 25.31 0 0 0 154.35 25.935 A 27.734 27.734 0 0 0 152.253 26.013 A 23.156 23.156 0 0 0 144.375 27.982 Q 139.86 30.03 136.553 33.758 A 24.275 24.275 0 0 0 134.193 36.902 A 28.456 28.456 0 0 0 131.407 42.735 A 31.298 31.298 0 0 0 130.151 47.55 A 38.668 38.668 0 0 0 129.57 54.39 A 40.802 40.802 0 0 0 129.787 58.66 A 32.616 32.616 0 0 0 131.407 66.045 Q 133.245 71.295 136.553 74.97 Q 139.86 78.645 144.375 80.693 A 22.113 22.113 0 0 0 147.894 81.94 A 25.31 25.31 0 0 0 154.35 82.74 A 27.734 27.734 0 0 0 156.447 82.662 A 23.156 23.156 0 0 0 164.325 80.693 Q 168.84 78.645 172.148 74.97 A 23.631 23.631 0 0 0 174.613 71.69 A 28.086 28.086 0 0 0 177.292 66.045 A 31.298 31.298 0 0 0 178.549 61.23 Z M 171.885 54.39 A 35.744 35.744 0 0 0 171.327 47.878 Q 170.261 42.13 167.16 38.168 A 15.132 15.132 0 0 0 156.109 32.205 A 20.248 20.248 0 0 0 154.35 32.13 A 17.426 17.426 0 0 0 148.335 33.126 A 15.118 15.118 0 0 0 141.54 38.167 A 20.928 20.928 0 0 0 137.888 45.624 Q 136.815 49.536 136.815 54.39 A 35.642 35.642 0 0 0 137.373 60.896 Q 138.072 64.658 139.646 67.642 A 19.013 19.013 0 0 0 141.54 70.56 A 15.173 15.173 0 0 0 152.622 76.473 A 20.447 20.447 0 0 0 154.35 76.545 A 17.564 17.564 0 0 0 160.365 75.557 A 15.109 15.109 0 0 0 167.16 70.56 Q 171.313 65.3 171.816 56.795 A 40.754 40.754 0 0 0 171.885 54.39 Z M 64.68 27.195 L 64.68 81.48 L 57.855 81.48 L 57.855 27.195 L 64.68 27.195 Z M 66.053 12.47 A 6.408 6.408 0 0 0 66.255 10.815 A 6.783 6.783 0 0 0 66.151 9.602 A 4.704 4.704 0 0 0 64.785 6.982 Q 63.315 5.565 61.215 5.565 Q 59.115 5.565 57.645 6.983 A 4.615 4.615 0 0 0 56.377 9.16 A 6.408 6.408 0 0 0 56.175 10.815 A 6.783 6.783 0 0 0 56.279 12.028 A 4.704 4.704 0 0 0 57.645 14.648 Q 59.115 16.065 61.215 16.065 Q 63.315 16.065 64.785 14.648 A 4.615 4.615 0 0 0 66.053 12.47 Z" vector-effect="non-scaling-stroke"/></g></svg>